<?xml version="1.0" encoding="UTF-8" standalone="no"?>
<!-- Created with Inkscape (http://www.inkscape.org/) -->

<svg
   xmlns:dc="http://purl.org/dc/elements/1.1/"
   xmlns:cc="http://creativecommons.org/ns#"
   xmlns:rdf="http://www.w3.org/1999/02/22-rdf-syntax-ns#"
   xmlns:svg="http://www.w3.org/2000/svg"
   xmlns="http://www.w3.org/2000/svg"
   xmlns:sodipodi="http://sodipodi.sourceforge.net/DTD/sodipodi-0.dtd"
   xmlns:inkscape="http://www.inkscape.org/namespaces/inkscape"
   width="210mm"
   height="297mm"
   viewBox="0 0 744.09448819 1052.3622047"
   id="svg2"
   version="1.1"
   inkscape:version="0.91 r13725"
   sodipodi:docname="logo_Novo_6.svg">
  <defs
     id="defs4">
    <pattern
       y="0"
       x="0"
       height="6"
       width="6"
       patternUnits="userSpaceOnUse"
       id="EMFhbasepattern" />
    <pattern
       y="0"
       x="0"
       height="6"
       width="6"
       patternUnits="userSpaceOnUse"
       id="EMFhbasepattern-4" />
    <pattern
       y="0"
       x="0"
       height="6"
       width="6"
       patternUnits="userSpaceOnUse"
       id="EMFhbasepattern-8" />
  </defs>
  <sodipodi:namedview
     id="base"
     pagecolor="#ffffff"
     bordercolor="#666666"
     borderopacity="1.0"
     inkscape:pageopacity="0.0"
     inkscape:pageshadow="2"
     inkscape:zoom="0.5"
     inkscape:cx="171.97436"
     inkscape:cy="501.81458"
     inkscape:document-units="px"
     inkscape:current-layer="layer4"
     showgrid="false"
     showguides="true"
     inkscape:guide-bbox="true"
     inkscape:window-width="1600"
     inkscape:window-height="837"
     inkscape:window-x="-8"
     inkscape:window-y="-8"
     inkscape:window-maximized="1"
     inkscape:snap-global="true" />
  <metadata
     id="metadata7">
    <rdf:RDF>
      <cc:Work
         rdf:about="">
        <dc:format>image/svg+xml</dc:format>
        <dc:type
           rdf:resource="http://purl.org/dc/dcmitype/StillImage" />
        <dc:title />
      </cc:Work>
    </rdf:RDF>
  </metadata>
  <g
     inkscape:groupmode="layer"
     id="layer9"
     inkscape:label="Perna Cavalheiro"
     style="display:inline" />
  <g
     inkscape:label="Cavalheiro Corpo"
     inkscape:groupmode="layer"
     id="layer1"
     style="display:inline">
    <path
       inkscape:connector-curvature="0"
       id="path4289"
       d="m -1051.7469,651.89053 -27.0007,0 0,-57.4471 54.0005,0 0,57.4471 -26.9998,0 z"
       style="fill:#58109e;fill-opacity:1;fill-rule:evenodd;stroke:none" />
    <path
       inkscape:connector-curvature="0"
       id="path4291"
       d="m -1051.7469,713.16687 -27.0007,0 0,-57.44734 54.0005,0 0,57.44734 -26.9998,0 z"
       style="fill:#049182;fill-opacity:1;fill-rule:evenodd;stroke:none" />
    <path
       inkscape:connector-curvature="0"
       id="path4293"
       d="m -1051.7469,590.61363 -27.0007,0 0,-57.44676 54.0005,0 0,57.44676 -26.9998,0 z"
       style="fill:#eaaa07;fill-opacity:1;fill-rule:evenodd;stroke:none" />
    <path
       inkscape:connector-curvature="0"
       id="path4295"
       d="m -1112.947,590.61363 -27.0007,0 0,-57.44676 54.0005,0 0,57.44676 -26.9998,0 z"
       style="fill:#705000;fill-opacity:1;fill-rule:evenodd;stroke:none" />
    <path
       inkscape:connector-curvature="0"
       id="path4297"
       d="m -1174.1471,590.61363 -26.9997,0 0,-57.44676 53.9995,0 0,57.44676 -26.9998,0 z"
       style="fill:#b28000;fill-opacity:1;fill-rule:evenodd;stroke:none" />
    <path
       inkscape:connector-curvature="0"
       id="path4299"
       d="m -1235.3472,590.61363 -26.9997,0 0,-57.44676 53.9995,0 0,57.44676 -26.9998,0 z"
       style="fill:#eaaa07;fill-opacity:1;fill-rule:evenodd;stroke:none" />
    <path
       inkscape:connector-curvature="0"
       id="path4301"
       d="m -1296.5472,590.61363 -26.9999,0 0,-57.44676 53.9996,0 0,57.44676 -26.9997,0 z"
       style="fill:#fccb4d;fill-opacity:1;fill-rule:evenodd;stroke:none" />
    <path
       inkscape:connector-curvature="0"
       id="path4303"
       d="m -1357.7472,590.61363 -26.9999,0 0,-57.44676 54,0 0,57.44676 -27.0001,0 z"
       style="fill:#ffe39d;fill-opacity:1;fill-rule:evenodd;stroke:none" />
    <path
       inkscape:connector-curvature="0"
       id="path4305"
       d="m -1357.7472,651.89053 -26.9999,0 0,-57.4471 54,0 0,57.4471 -27.0001,0 z"
       style="fill:#a883cc;fill-opacity:1;fill-rule:evenodd;stroke:none" />
    <path
       inkscape:connector-curvature="0"
       id="path4307"
       d="m -1174.1471,651.89053 -26.9997,0 0,-57.4471 53.9995,0 0,57.4471 -26.9998,0 z"
       style="fill:#410778;fill-opacity:1;fill-rule:evenodd;stroke:none" />
    <path
       inkscape:connector-curvature="0"
       id="path4309"
       d="m -1235.3472,651.89053 -26.9997,0 0,-57.4471 53.9995,0 0,57.4471 -26.9998,0 z"
       style="fill:#58109e;fill-opacity:1;fill-rule:evenodd;stroke:none" />
    <path
       inkscape:connector-curvature="0"
       id="path4311"
       d="m -1296.5472,651.89053 -26.9999,0 0,-57.4471 53.9996,0 0,57.4471 -26.9997,0 z"
       style="fill:#743daa;fill-opacity:1;fill-rule:evenodd;stroke:none" />
    <path
       inkscape:connector-curvature="0"
       id="path4313"
       d="m -1112.947,651.89053 -27.0007,0 0,-57.4471 54.0005,0 0,57.4471 -26.9998,0 z"
       style="fill:#28024c;fill-opacity:1;fill-rule:evenodd;stroke:none" />
    <path
       inkscape:connector-curvature="0"
       id="path4315"
       d="m -1112.947,713.16687 -27.0007,0 0,-57.44734 54.0005,0 0,57.44734 -26.9998,0 z"
       style="fill:#00463e;fill-opacity:1;fill-rule:evenodd;stroke:none" />
    <path
       inkscape:connector-curvature="0"
       id="path4317"
       d="m -1174.1471,713.16687 -26.9997,0 0,-57.44734 53.9995,0 0,57.44734 -26.9998,0 z"
       style="fill:#006f63;fill-opacity:1;fill-rule:evenodd;stroke:none" />
    <path
       inkscape:connector-curvature="0"
       id="path4319"
       d="m -1235.3472,713.16687 -26.9997,0 0,-57.44734 53.9995,0 0,57.44734 -26.9998,0 z"
       style="fill:#049182;fill-opacity:1;fill-rule:evenodd;stroke:none" />
    <path
       inkscape:connector-curvature="0"
       id="path4321"
       d="m -1296.5472,713.16687 -26.9999,0 0,-57.44734 53.9996,0 0,57.44734 -26.9997,0 z"
       style="fill:#309d91;fill-opacity:1;fill-rule:evenodd;stroke:none" />
    <path
       inkscape:connector-curvature="0"
       id="path4323"
       d="m -1357.7472,713.16687 -26.9999,0 0,-57.44734 54,0 0,57.44734 -27.0001,0 z"
       style="fill:#78c4bc;fill-opacity:1;fill-rule:evenodd;stroke:none" />
    <path
       inkscape:connector-curvature="0"
       id="path4509"
       d="m 189.04103,125.9774 c 29.49521,0 52.05123,22.55574 52.05123,52.05166 0,29.49593 -22.55602,52.05209 -52.05123,52.05209 -29.49628,0 -52.05191,-22.55616 -52.05191,-52.05209 0,-29.49593 22.55563,-52.05166 52.05191,-52.05166 z m -52.05191,0 0,0 z m 104.13824,104.13804 0,0 z"
       style="fill:#309d91;fill-opacity:1;fill-rule:evenodd;stroke:none" />
    <path
       inkscape:connector-curvature="0"
       id="path4511"
       d="m 189.04103,125.9774 c 29.49521,0 52.05123,22.55574 52.05123,52.05166 0,29.49593 -22.55602,52.05209 -52.05123,52.05209 -29.49628,0 -52.05191,-22.55616 -52.05191,-52.05209 0,-29.49593 22.55563,-52.05166 52.05191,-52.05166"
       style="fill:none;stroke:#78c4bc;stroke-width:0.03470112px;stroke-linecap:round;stroke-linejoin:round;stroke-miterlimit:4;stroke-dasharray:none;stroke-opacity:1" />
    <path
       inkscape:connector-curvature="0"
       id="path4513"
       d="m 136.98912,125.9774 0,0"
       style="fill:none;stroke:#78c4bc;stroke-width:0.03470112px;stroke-linecap:round;stroke-linejoin:round;stroke-miterlimit:4;stroke-dasharray:none;stroke-opacity:1" />
    <path
       inkscape:connector-curvature="0"
       id="path4515"
       d="m 241.12736,230.11544 0,0"
       style="fill:none;stroke:#78c4bc;stroke-width:0.03470112px;stroke-linecap:round;stroke-linejoin:round;stroke-miterlimit:4;stroke-dasharray:none;stroke-opacity:1" />
    <path
       inkscape:connector-curvature="0"
       id="path4517"
       d="M 137.69623,337.90937 C 210.56904,167.87433 466.64955,205.82463 588.10342,230.11544 327.84532,195.41431 126.57867,348.06447 418.06813,590.97187 205.50267,588.63009 90.854515,476.82047 137.69623,337.90937 Z"
       style="fill:#eaaa07;fill-opacity:1;fill-rule:evenodd;stroke:none"
       sodipodi:nodetypes="cccc" />
    <path
       inkscape:connector-curvature="0"
       id="path4519"
       d="M 485.09597,786.33493 C 429.32826,953.73862 165.96196,920.83018 44.507745,896.53942 304.76593,931.24023 495.50611,775.95869 204.01658,533.05137 370.58241,609.39314 516.04823,679.46749 485.09597,786.33493 Z"
       style="fill:#eaaa07;fill-opacity:1;fill-rule:evenodd;stroke:none"
       sodipodi:nodetypes="cccc" />
    <path
       inkscape:connector-curvature="0"
       id="path4527"
       d="m 504.8212,320.30307 0,0"
       style="fill:none;stroke:#a883cc;stroke-width:0.03470112px;stroke-linecap:round;stroke-linejoin:round;stroke-miterlimit:4;stroke-dasharray:none;stroke-opacity:1" />
    <path
       inkscape:connector-curvature="0"
       id="path4529"
       d="m 608.95879,424.44153 0,0"
       style="fill:none;stroke:#a883cc;stroke-width:0.03470112px;stroke-linecap:round;stroke-linejoin:round;stroke-miterlimit:4;stroke-dasharray:none;stroke-opacity:1" />
  </g>
  <g
     inkscape:groupmode="layer"
     id="layer7"
     inkscape:label="Braço Dama"
     style="display:inline" />
  <g
     inkscape:groupmode="layer"
     id="layer5"
     inkscape:label="Dama Corpo"
     style="display:inline">
    <path
       inkscape:connector-curvature="0"
       id="path4760"
       d="m 1030.2273,476.13688 0,0"
       style="fill:none;stroke:#78c4bc;stroke-width:0.03937366px;stroke-linecap:round;stroke-linejoin:round;stroke-miterlimit:4;stroke-dasharray:none;stroke-opacity:1" />
    <path
       inkscape:connector-curvature="0"
       id="path4762"
       d="m 1142.3881,534.29724 0,0"
       style="fill:none;stroke:#78c4bc;stroke-width:0.03937366px;stroke-linecap:round;stroke-linejoin:round;stroke-miterlimit:4;stroke-dasharray:none;stroke-opacity:1" />
    <path
       inkscape:connector-curvature="0"
       id="path4768"
       d="M 1559.7092,1309.9187 C 988.79071,1148.4863 1047.8516,636.62867 1618.769,805.93627"
       style="fill:none;stroke:#000000;stroke-width:0.03937366px;stroke-linecap:round;stroke-linejoin:round;stroke-miterlimit:4;stroke-dasharray:none;stroke-opacity:1" />
    <path
       inkscape:connector-curvature="0"
       id="path4778"
       d="M 1618.769,805.93627 C 1162.0353,912.24478 1256.5317,1085.4883 1248.6576,1140.6122"
       style="fill:none;stroke:#000000;stroke-width:0.03937366px;stroke-linecap:round;stroke-linejoin:round;stroke-miterlimit:4;stroke-dasharray:none;stroke-opacity:1" />
    <path
       inkscape:connector-curvature="0"
       id="path4535"
       d="M 659.20981,913.24638 C 427.02032,948.71538 300.61188,852.4811 272.08022,825.41125 189.34177,750.55927 167.07338,637.82841 217.55018,532.87594 296.07445,394.54173 465.49145,355.68612 655.57408,404.54857 c -327.3692,-2.8467 -317.08267,236.48347 -316.85851,255.19245 5.73778,239.47125 270.70912,255.22252 320.49424,253.50536 z"
       style="fill:#78c4bc;fill-opacity:1;fill-rule:evenodd;stroke:none"
       sodipodi:nodetypes="cccccc" />
  </g>
  <g
     inkscape:groupmode="layer"
     id="layer8"
     inkscape:label="Dama Perna"
     style="display:inline">
    <path
       inkscape:connector-curvature="0"
       id="path4786"
       d="M 316.22723,431.62631 C 152.89494,706.07657 434.69067,924.75666 663.63704,912.48047 385.23926,961.30109 117.00257,803.60187 207.14086,553.85198 227.93833,504.63171 267.94955,460.61076 316.22723,431.62631 Z"
       style="fill:#309d91;fill-opacity:1;fill-rule:evenodd;stroke:none"
       sodipodi:nodetypes="cccc" />
  </g>
  <g
     inkscape:groupmode="layer"
     id="layer6"
     inkscape:label="Cavalheiro Braço"
     style="display:inline">
    <path
       inkscape:connector-curvature="0"
       id="path4519-5"
       d="m 417.49432,590.31898 c 109.0281,92.23617 66.6158,199.90915 66.6158,199.90915 C 522.67934,664.25114 329.66531,603.50615 213.14946,540.89496 137.34441,496.21078 110.02069,416.62569 137.69477,337.91768 c -6.71748,52.7398 0.34418,73.66706 52.92584,122.67059 113.22563,85.94654 168.58471,82.81441 226.87371,129.73071 z"
       style="fill:#ffe39d;fill-opacity:1;fill-rule:evenodd;stroke:none"
       sodipodi:nodetypes="cccccc" />
  </g>
  <g
     inkscape:groupmode="layer"
     id="layer4"
     inkscape:label="Dama Cabeça"
     style="display:inline">
    <path
       inkscape:connector-curvature="0"
       id="path4523"
       d="m 490.95431,263.8291 c 29.49624,0 52.0519,22.55574 52.0519,52.05205 0,29.49635 -22.55566,52.05207 -52.0519,52.05207 -29.4956,0 -52.05125,-22.55572 -52.05125,-52.05207 0,-29.49631 22.55565,-52.05205 52.05125,-52.05205 z m -52.05125,0 0,0 z m 104.13759,104.13846 0,0 z"
       style="fill:#743daa;fill-opacity:1;fill-rule:evenodd;stroke:none" />
  </g>
</svg>
